<?xml version="1.0"?>
<svg version="1.1" xmlns="http://www.w3.org/2000/svg" width="128" height="128" style=""><path fill="#" d="M18.076171875,105.796875q0.29296875-7.91015625,0.5126953125-16.2109375t0.4150390625-16.3818359375t0.29296875-15.6982421875t0.09765625-14.208984375q0.09765625-1.318359375,2.294921875-2.099609375t5.2490234375-1.1474609375t6.4453125-0.4638671875t6.0302734375-0.09765625q0.5859375,0,2.44140625-0.048828125l0.927734375,0q1.416015625,0,2.978515625,0.09765625q2.05078125,0.146484375,3.5888671875,0.634765625t1.5380859375,1.416015625q0,0.68359375-0.537109375,1.0986328125t-1.2451171875,0.6103515625t-1.46484375,0.244140625t-1.0498046875,0.048828125q-4.58984375,0-9.08203125-0.146484375q-1.220703125-0.048828125-2.490234375-0.048828125q-3.3203125,0-6.73828125,0.29296875q0.1953125,0.5859375,0.3173828125,3.5400390625t0.1220703125,6.6650390625t-0.048828125,7.2509765625t0,5.4443359375l0,12.6953125q1.513671875-0.09765625,2.978515625-0.09765625l2.9296875,0l1.953125-0.09765625q0.9765625-0.048828125,2.05078125-0.048828125q1.123046875,0,2.294921875,0.048828125q2.34375,0.09765625,4.2724609375,0.5615234375t1.9287109375,1.6357421875q0,0.87890625-0.732421875,1.2939453125t-1.6357421875,0.6103515625t-1.708984375,0.1953125l-0.9033203125,0q-2.783203125,0-5.7861328125-0.1953125t-5.5908203125-0.1953125q-0.48828125,0.1953125-1.0498046875,0.146484375t-1.0009765625-0.048828125q0,7.32421875-0.146484375,14.5751953125t-0.341796875,14.4287109375q0,1.416015625-1.7822265625,1.85546875t-3.3935546875,0.439453125q-1.806640625,0-2.8564453125-0.439453125t-1.4892578125-1.4404296875t-0.537109375-2.6611328125q-0.048828125-0.927734375-0.09765625-2.05078125q0-0.927734375,0.048828125-2.001953125z M58.00146484375,106.08984375q-0.048828125-1.46484375-0.048828125-2.9296875q0-4.58984375,0.48828125-9.228515625q0.5859375-6.15234375,0.78125-12.109375q0.1953125-6.982421875,0.5859375-14.501953125q0.244140625-4.1015625,0.244140625-8.10546875q0-3.271484375-0.146484375-6.494140625q0.48828125-1.123046875,1.2939453125-1.513671875t2.0263671875-0.390625q0.5859375,0,1.2451171875,0.09765625t1.1474609375,0.48828125q0.68359375,0.09765625,1.6845703125,0.1953125t1.5380859375,0.5859375q0.1953125,0.29296875,1.0009765625,2.001953125t1.904296875,4.150390625t2.294921875,5.2978515625t2.294921875,5.419921875t1.904296875,4.5166015625t1.0009765625,2.44140625q4.58984375-8.30078125,8.984375-17.0654296875t9.619140625-16.5283203125q0.48828125-0.68359375,1.6845703125-1.0009765625t1.9775390625-0.3173828125q2.099609375,0,3.0517578125,1.0009765625t1.2451171875,2.5634765625q0.1953125,0.9765625,0.244140625,2.099609375q0.048828125,0.5859375-0.048828125,1.220703125q-0.1953125,1.806640625-0.1953125,3.41796875q0,11.376953125-0.78125,22.5830078125t-1.416015625,22.6318359375q-0.09765625,2.34375-0.09765625,4.8828125t0.09765625,5.2734375q0.048828125,0.9765625,0.048828125,1.904296875q0,4.296875-0.732421875,8.0078125q-0.68359375,1.123046875-2.24609375,1.416015625t-2.63671875,0.29296875q-2.294921875,0-4.39453125-1.07421875l-0.537109375-0.634765625l-0.1953125-0.78125t-0.09765625-0.78125q0-7.080078125,0.5126953125-14.2578125t1.1474609375-14.3310546875t1.3427734375-14.2822265625t1.1962890625-14.2578125q-2.880859375,4.78515625-5.5908203125,9.7412109375t-5.1025390625,10.0830078125q-0.87890625,2.001953125-1.6845703125,4.296875t-1.9287109375,4.1015625q-0.5859375,0.87890625-1.9775390625,1.07421875t-2.4169921875,0.1953125q-0.9765625,0-2.0263671875-0.341796875t-1.4404296875-1.46484375q-1.806640625-5.517578125-3.857421875-10.791015625t-4.150390625-10.693359375q0,3.61328125,0.146484375,9.3505859375t0.146484375,11.8896484375t-0.1953125,11.767578125t-0.927734375,8.88671875q-0.1953125,1.220703125-1.5869140625,1.513671875t-2.4169921875,0.29296875q-0.78125,0-1.4892578125-0.09765625t-1.3916015625-0.390625z"/><path fill="#" d=""/></svg>
