<?xml version="1.0"?>
<svg width="181pt" height="126pt" viewBox="-1 -1 183 128" xmlns="http://www.w3.org/2000/svg"><g id="fontsvg1678005512454" stroke-linecap="round" fill-rule="evenodd" stroke="#2f2f2f" stroke-width="0.5mm" fill="#737373"><path d="M 158.554 113.317 L 158.554 113.617 L 158.404 113.617 A 10.501 10.501 0 0 1 154.125 119.082 Q 152.544 120.147 150.45 120.913 A 23.155 23.155 0 0 1 149.404 121.267 A 28.403 28.403 0 0 1 145.605 122.132 Q 140.813 122.867 136.804 121.567 A 14.319 14.319 0 0 1 134.276 120.593 Q 130.207 118.519 130.648 114.42 A 8.017 8.017 0 0 1 130.654 114.367 L 130.804 110.917 L 130.804 110.617 A 154.486 154.486 0 0 0 131.056 109.057 Q 131.422 106.718 131.479 105.742 A 23.228 23.228 0 0 1 131.521 105.146 Q 131.572 104.546 131.645 104.145 A 4.386 4.386 0 0 1 131.704 103.867 A 38.106 38.106 0 0 1 132.424 98.808 A 32.516 32.516 0 0 1 132.979 96.592 A 141.065 141.065 0 0 0 133.434 94.984 Q 134.066 92.692 134.404 91.117 A 181.005 181.005 0 0 1 134.854 89.073 A 153.999 153.999 0 0 1 135.304 87.142 A 62.913 62.913 0 0 0 135.51 86.256 Q 135.726 85.298 135.842 84.611 A 15.326 15.326 0 0 0 135.904 84.217 Q 130.954 90.99 128.493 93.126 A 7.884 7.884 0 0 1 127.804 93.667 A 21.74 21.74 0 0 1 115.811 97.571 Q 114.848 97.604 113.854 97.567 Q 109.138 97.281 108.234 95.498 A 1.941 1.941 0 0 1 108.154 95.317 Q 106.654 91.117 106.054 90.367 Q 105.154 89.167 104.554 86.317 Q 100.654 103.567 96.904 110.767 Q 95.404 113.617 93.904 115.867 A 9.995 9.995 0 0 1 90.226 120.227 Q 88.722 121.259 86.715 122.011 A 24.295 24.295 0 0 1 84.304 122.767 A 24.631 24.631 0 0 1 79.293 123.627 Q 78.587 123.672 77.887 123.672 A 21.357 21.357 0 0 1 70.804 122.467 A 13.86 13.86 0 0 1 68.116 121.317 Q 64.273 119.116 64.504 114.967 A 53.584 53.584 0 0 1 64.896 110.926 Q 65.172 108.841 65.618 106.458 A 127.782 127.782 0 0 1 66.679 101.392 A 360.803 360.803 0 0 1 69.286 90.792 A 434.356 434.356 0 0 1 71.104 84.067 A 1579.329 1579.329 0 0 1 74.239 72.37 Q 79.459 53.214 81.979 46.417 A 376.722 376.722 0 0 1 83.531 42.301 Q 85.242 37.844 86.633 34.623 A 106.478 106.478 0 0 1 87.454 32.767 Q 92.854 21.217 97.054 15.967 Q 101.704 6.517 112.504 4.567 A 27.773 27.773 0 0 1 116.004 4.112 Q 121.001 3.794 125.201 5.527 A 18.996 18.996 0 0 1 127.504 6.667 A 89.529 89.529 0 0 1 128.096 8.309 Q 128.868 10.527 129.085 11.635 A 5.322 5.322 0 0 1 129.154 12.067 A 5.942 5.942 0 0 1 129.187 12.689 Q 129.187 14.77 127.64 16.336 A 7.245 7.245 0 0 1 127.054 16.867 Q 127.054 17.006 126.795 17.274 A 3.129 3.129 0 0 1 126.754 17.317 A 48.549 48.549 0 0 1 127.537 23.373 Q 127.622 24.709 127.622 26.009 A 37.213 37.213 0 0 1 127.354 30.517 A 141.108 141.108 0 0 1 125.697 40.935 A 128.742 128.742 0 0 1 125.404 42.367 Q 131.606 31.801 135.873 25.544 A 102.679 102.679 0 0 1 138.304 22.117 Q 147.978 9.071 156.363 3.331 A 38.284 38.284 0 0 1 156.754 3.067 Q 159.604 1.417 163.729 0.592 A 24.181 24.181 0 0 1 167.527 0.131 Q 169.618 0.049 171.604 0.367 A 12.278 12.278 0 0 1 175.18 1.488 A 10.587 10.587 0 0 1 177.829 3.367 A 6.887 6.887 0 0 1 179.644 6.48 Q 180.135 8.193 180.012 10.437 A 17.465 17.465 0 0 1 180.004 10.567 A 1364.348 1364.348 0 0 1 175.654 38.823 A 1108.48 1108.48 0 0 1 171.004 65.092 A 374.265 374.265 0 0 1 159.732 109.717 A 342.524 342.524 0 0 1 158.554 113.317 Z M 45.604 58.417 L 58.804 57.067 Q 60.9 56.867 62.63 57.497 A 7.518 7.518 0 0 1 64.279 58.342 A 10.088 10.088 0 0 1 66.215 60.026 A 8.123 8.123 0 0 1 67.579 62.167 A 8.177 8.177 0 0 1 68.136 63.982 Q 68.246 64.599 68.246 65.211 A 6.8 6.8 0 0 1 68.104 66.592 A 4.477 4.477 0 0 1 66.079 69.504 A 6.531 6.531 0 0 1 65.404 69.892 A 14.269 14.269 0 0 0 64.32 70.489 Q 62.975 71.315 62.479 72.142 Q 61.804 73.267 61.354 74.317 Q 60.904 75.367 60.229 76.417 A 2.997 2.997 0 0 1 59.653 77.058 Q 59.03 77.594 57.956 78.088 A 14.158 14.158 0 0 1 57.304 78.367 Q 52.504 80.617 38.854 81.967 A 58.886 58.886 0 0 1 38.218 83.77 Q 37.626 85.37 36.829 87.292 A 1437.445 1437.445 0 0 0 34.54 92.845 A 1592.414 1592.414 0 0 0 34.204 93.667 A 679.314 679.314 0 0 0 32.86 97.156 Q 30.5 103.338 29.901 105.373 A 11.319 11.319 0 0 0 29.779 105.817 A 224.121 224.121 0 0 0 29.531 106.82 Q 29.228 108.052 29.02 108.974 A 73.342 73.342 0 0 0 28.954 109.267 Q 28.077 113.212 27.343 114.738 A 5.896 5.896 0 0 1 27.304 114.817 A 12.727 12.727 0 0 1 20.174 123.203 A 19.311 19.311 0 0 1 17.404 124.267 A 19.637 19.637 0 0 1 14.326 124.913 Q 8.957 125.579 4.504 122.767 A 10.896 10.896 0 0 1 2.034 120.757 Q -1.105 117.251 0.604 111.667 Q 2.554 103.267 8.104 84.817 A 100765.084 100765.084 0 0 0 10.673 76.276 Q 14.216 64.492 15.904 58.867 A 1787.543 1787.543 0 0 0 18.014 51.332 Q 21.449 38.954 22.504 34.267 A 456.866 456.866 0 0 1 24.155 29.042 Q 27.534 18.592 29.179 15.667 Q 30.816 12.756 32.11 11.268 A 9.074 9.074 0 0 1 32.704 10.642 A 13.363 13.363 0 0 1 33.76 9.749 Q 34.867 8.898 36.518 7.895 A 55.619 55.619 0 0 1 37.579 7.267 Q 40.954 5.317 44.854 4.267 Q 48.754 3.217 52.654 2.842 Q 56.554 2.467 60.604 2.242 A 42.341 42.341 0 0 0 64.809 1.784 Q 67.09 1.426 69.604 0.817 A 21.917 21.917 0 0 0 71.46 0.742 A 16.323 16.323 0 0 0 73.129 0.517 A 35.522 35.522 0 0 1 75.828 0.107 A 32.416 32.416 0 0 1 76.204 0.067 A 17.649 17.649 0 0 1 77.734 0 A 17.734 17.734 0 0 1 83.029 0.817 A 10.039 10.039 0 0 1 85.831 2.164 A 8.48 8.48 0 0 1 88.129 4.567 A 11.026 11.026 0 0 1 89.839 10.076 A 13.395 13.395 0 0 1 89.854 10.717 A 19.007 19.007 0 0 1 89.403 14.74 A 25.303 25.303 0 0 1 88.429 18.067 A 31.693 31.693 0 0 1 84.768 25.115 A 35.362 35.362 0 0 1 84.454 25.567 A 31.716 31.716 0 0 1 75.826 33.942 A 29.935 29.935 0 0 1 70.504 36.667 Q 64.703 38.452 62.147 38.467 A 7.333 7.333 0 0 1 62.104 38.467 A 17.068 17.068 0 0 1 60.936 38.43 Q 59.822 38.353 59.127 38.116 A 2.715 2.715 0 0 1 58.579 37.867 A 11.892 11.892 0 0 1 58.242 37.652 Q 57.725 37.309 57.535 37.085 A 0.616 0.616 0 0 1 57.454 36.967 A 0.102 0.102 0 0 0 57.416 36.923 Q 57.213 36.803 56.404 38.017 Q 55.054 39.967 54.454 42.367 A 21.774 21.774 0 0 1 54.105 43.616 Q 53.643 45.083 53.104 45.892 A 8.022 8.022 0 0 0 52.703 46.577 Q 52.04 47.829 51.079 50.317 A 20.69 20.69 0 0 1 49.735 53.163 A 15.413 15.413 0 0 1 47.854 55.792 A 174.177 174.177 0 0 0 47.181 56.547 Q 46.027 57.849 45.689 58.298 A 2.646 2.646 0 0 0 45.604 58.417 Z" vector-effect="non-scaling-stroke"/></g></svg>